# xmcd
#
# Track frame offsets:
# 150
# 7369
# 21463
# 42651
# 49570
# 70943
# 75810
# 95397
# 119378
# 143212
# 150831
# 165576
# 193532
#
# Disc length: 3262 seconds
#
#
# Revision: 1
# Processed by: cddbd v1.5.2PL0 Copyright (c) Steve Scherf et al.
# Submitted via: FreeRIP 2.945 
#
DISCID=a20cbc0d
DTITLE=Smooth - An Electro Soul Experience
DYEAR=2005
DGENRE=Electro Soul
TTITLE0=B-side
TTITLE1=Les reflets
TTITLE2=My tragedy
TTITLE3=The march
TTITLE4=Little karma
TTITLE5=Introduction to Smooth
TTITLE6=Smooth
TTITLE7=Out of your reach
TTITLE8=Son of the seventies
TTITLE9=Dragon purchase
TTITLE10=Mista green
TTITLE11=Do you like funky breaker
TTITLE12=Dying
EXTD=
EXTT0=
EXTT1=
EXTT2=
EXTT3=
EXTT4=
EXTT5=
EXTT6=
EXTT7=
EXTT8=
EXTT9=
EXTT10=
EXTT11=
EXTT12=
PLAYORDER=
